<svg width="926" height="470" xmlns="http://www.w3.org/2000/svg" xmlns:xlink="http://www.w3.org/1999/xlink" xml:space="preserve" overflow="hidden"><defs><clipPath id="clip0"><rect x="1128" y="825" width="926" height="470"/></clipPath></defs><g clip-path="url(#clip0)" transform="translate(-1128 -825)"><path d="M1481.66 825C1543.25 825 1597.54 863.654 1629.6 922.446L1641.49 949.576 1660.04 937.1C1676.08 928.697 1693.71 924.05 1712.22 924.05 1749.24 924.05 1782.75 942.636 1807 972.687L1814.98 984.657 1828.06 983.431C1877.81 983.431 1920.49 1020.9 1938.73 1074.31L1941.83 1093.36 1953.18 1093.36C2008.86 1093.36 2054 1138.5 2054 1194.18 2054 1249.86 2008.86 1295 1953.18 1295L1228.82 1295C1173.14 1295 1128 1249.86 1128 1194.18 1128 1145.46 1162.56 1104.81 1208.5 1095.41L1208.73 1095.38 1211.08 1065.48C1222.02 996.901 1264.76 943.192 1318.67 930.836L1330.64 929.482 1333.72 922.446C1365.78 863.654 1420.08 825 1481.66 825Z" fill="#FF7DDD" fill-rule="evenodd"/></g></svg>